<?xml version="1.0" standalone="no"?>
<svg xmlns:xlink="http://www.w3.org/1999/xlink" id="svg-web-2" width="180" height="180" viewBox="0 0 200 200" xmlns="http://www.w3.org/2000/svg">
                     <defs>
                        <linearGradient id="gradBronzeWeb2" x1="0%" y1="0%" x2="100%" y2="100%">
                            <stop offset="0%" style="stop-color:#FDBA74;stop-opacity:1"/> <!-- Orange-Gold -->
                            <stop offset="100%" style="stop-color:#C2410C;stop-opacity:1"/> <!-- Deep Orange -->
                        </linearGradient>
                    </defs>
                    <!-- Icon & Lines - Cream -->
                    <path d="M70 60 V100 A20 20 0 0 1 30 100" stroke="#FFF7ED" stroke-width="8" stroke-linecap="round" fill="none" transform="translate(10, 0)"/>
                    <path d="M80 60 H100 A20 20 0 0 1 100 100 H80 V60 Z" stroke="#FFF7ED" stroke-width="8" fill="none" transform="translate(10, 0)"/>
                    <path d="M80 100 H105 A20 20 0 0 1 105 140 H70 V100" stroke="#FFF7ED" stroke-width="8" fill="none" transform="translate(10, 0)"/>
                    <!-- Signal Waves - Orange Bronze -->
                    <path d="M145 70 A 30 30 0 0 1 145 130" stroke="url(#gradBronzeWeb2)" stroke-width="6" stroke-linecap="round" fill="none"/>
                    <path d="M160 60 A 45 45 0 0 1 160 140" stroke="url(#gradBronzeWeb2)" stroke-width="6" stroke-linecap="round" opacity="0.8" fill="none"/>
                    <!-- Text -->
                    <text x="100" y="180" font-family="'Outfit', sans-serif" font-weight="700" font-size="20" text-anchor="middle" letter-spacing="2" fill="#FFF7ED">JB CALLING</text>
                </svg>